<svg xmlns="http://www.w3.org/2000/svg" viewBox="0 0 18 18"><g fill="none" fill-rule="evenodd"><circle cx="9" cy="9" r="9" fill="#80868E" opacity=".7"/><g fill="#FFF" fill-rule="nonzero"><path d="M11.575 7.291V4.04a.5.5 0 0 0-.5-.5H5.189a.5.5 0 0 0-.5.5v9.656a.5.5 0 0 0 .504.5l8.107-.068a.5.5 0 0 0 .496-.5V7.791a.5.5 0 0 0-.5-.5h-1.721zm-1.262 5.493h-.938v-1.741h-2.67v1.741h-.937V4.813h4.612l-.067 7.971zm2.411-.335h-1.34v-1.34h1.34v1.34zm0-2.612h-1.34v-1.34h1.34v1.34z"/><path d="M6.906 5.818h2.437v1.339H6.906zM6.906 8.43h2.457v1.34H6.906z"/></g></g></svg>