<svg xmlns="http://www.w3.org/2000/svg" viewBox="0 0 18 18"><g fill="none" fill-rule="evenodd"><circle cx="9" cy="9" r="9" fill="#80868E" opacity=".7"/><path fill="#FFF" d="M13.19 11.208c0-.439-.552-.94-1.637-1.231a3.62 3.62 0 0 1-1.036-.49c-.07-.042-.059-.425-.059-.425l-.35-.055c0-.031-.029-.49-.029-.49.418-.147.375-1.009.375-1.009.266.153.439-.529.439-.529.314-.948-.157-.89-.157-.89a6.2 6.2 0 0 0 0-1.746c-.209-1.92-3.358-1.398-2.985-.771-.92-.177-.71 2.002-.71 2.002l.2.564c-.392.264-.12.584-.106.952.02.544.339.431.339.431.02.897.445 1.014.445 1.014.08.564.03.468.03.468l-.378.047c.005.128-.005.257-.03.382-.445.207-.541.328-.983.53-.855.389-1.783.895-1.948 1.577C4.445 12.221 4 14 4 14h10c0-.71-.81-2.792-.81-2.792z"/></g></svg>