<svg id="Capa_1" fill="#fff" enable-background="new 0 0 512.015 512.015" height="512" viewBox="0 0 512.015 512.015" width="512" xmlns="http://www.w3.org/2000/svg"><g><path d="m507.628 284.387c-.049-.049-.098-.098-.147-.147-7.593-7.56-19.208-9.329-28.841-4.639-86.856 42.289-91.75 67.489-147.391 69.716h-.02c-9.761.47-22.701.435-32.47.21h-.04c-6.083 0-11.634-3.732-13.674-9.463-3.848-10.813 4.197-20.758 14.354-20.537h.01c.02.01.03.01.04.01 11.25.25 22.24.18 30.21-.18.07 0 .13-.01.19-.01 32.362-1.925 44.658-12.863 64.16-26.81-5.1-26.38-31.73-42.26-57.12-34.62-7.58 2.27-20.18 1.99-36.14 1.63-53.76-1.2-106.45 19.97-144.59 58.11l-151.781 152.78c-9.39 9.44-2.67 25.57 10.64 25.57h149.3c6.1 0 11.6-3.7 13.9-9.35 30.77-75.64 64.55-78.36 119.28-77.14 46.3 1.02 103.92 2.29 167.7-61.49l42.43-42.43c5.849-5.86 5.849-15.35 0-21.21z"/><path d="m154.018 226.008h330c8.284 0 15-6.716 15-15v-45c0-33.084-26.916-60-60-60s-60 26.916-60 60c0-33.084-26.916-60-60-60s-60 26.916-60 60c0-33.084-26.916-60-60-60s-60 26.916-60 60v45c0 8.284 6.715 15 15 15z"/><circle cx="197.018" cy="61.008" r="45"/><circle cx="317.018" cy="61.008" r="45"/><circle cx="437.018" cy="61.008" r="45"/></g></svg>