<svg xmlns="http://www.w3.org/2000/svg" fill="#fff" height="725pt" version="1.1" viewBox="0 -12 725 725" width="725pt">
    <g id="surface1">
        <path d="M 96.335938 221.335938 L 78.664062 203.664062 L 103.5625 178.75 C 98.558594 176.308594 93.066406 175.023438 87.5 175 C 66.792969 175 50 191.792969 50 212.5 C 50 233.207031 66.792969 250 87.5 250 C 108.207031 250 125 233.207031 125 212.5 C 124.976562 206.933594 123.691406 201.441406 121.25 196.4375 Z M 96.335938 221.335938 " style=" stroke:none;fill-rule:nonzero;fill-opacity:1;" />
        <path d="M 96.335938 521.335938 L 78.664062 503.664062 L 103.5625 478.75 C 98.558594 476.308594 93.066406 475.023438 87.5 475 C 66.792969 475 50 491.792969 50 512.5 C 50 533.207031 66.792969 550 87.5 550 C 108.207031 550 125 533.207031 125 512.5 C 124.976562 506.933594 123.691406 501.441406 121.25 496.4375 Z M 96.335938 521.335938 " style=" stroke:none;fill-rule:nonzero;fill-opacity:1;" />
        <path d="M 96.335938 371.335938 L 78.664062 353.664062 L 103.5625 328.75 C 98.558594 326.308594 93.066406 325.023438 87.5 325 C 66.792969 325 50 341.792969 50 362.5 C 50 383.207031 66.792969 400 87.5 400 C 108.207031 400 125 383.207031 125 362.5 C 124.976562 356.933594 123.691406 351.441406 121.25 346.4375 Z M 96.335938 371.335938 " style=" stroke:none;fill-rule:nonzero;fill-opacity:1;" />
        <path d="M 562.5 350 C 583.808594 350.046875 604.941406 353.75 625 360.9375 L 625 37.5 C 625 16.792969 608.207031 0 587.5 0 L 37.5 0 C 16.792969 0 0 16.792969 0 37.5 L 0 587.5 C 0 608.207031 16.792969 625 37.5 625 L 396.789062 625 C 366.019531 566.914062 367.960938 496.945312 401.878906 440.644531 C 435.8125 384.335938 496.765625 349.941406 562.5 350 Z M 400 400 L 300 400 L 300 375 L 400 375 Z M 400 350 L 187.5 350 L 187.5 325 L 400 325 Z M 275 375 L 275 400 L 187.5 400 L 187.5 375 Z M 275 225 L 275 250 L 187.5 250 L 187.5 225 Z M 187.5 200 L 187.5 175 L 400 175 L 400 200 Z M 475 350 L 425 350 L 425 325 L 475 325 Z M 475 250 L 300 250 L 300 225 L 475 225 Z M 550 200 L 425 200 L 425 175 L 550 175 Z M 125 25 L 150 25 L 150 50 L 125 50 Z M 75 25 L 100 25 L 100 50 L 75 50 Z M 25 25 L 50 25 L 50 50 L 25 50 Z M 25 75 L 600 75 L 600 100 L 25 100 Z M 150 512.5 C 150.085938 541.25 130.609375 566.367188 102.742188 573.441406 C 74.882812 580.523438 45.78125 567.742188 32.132812 542.4375 C 18.496094 517.140625 23.804688 485.796875 45.023438 466.40625 C 66.25 447.015625 97.945312 444.539062 121.914062 460.410156 L 153.664062 428.664062 L 171.335938 446.335938 L 139.589844 478.085938 C 146.375 488.28125 150 500.253906 150 512.5 Z M 139.589844 328.085938 C 157.351562 354.929688 151.90625 390.863281 126.976562 411.230469 C 102.050781 431.597656 65.746094 429.773438 42.988281 407.011719 C 20.226562 384.253906 18.402344 347.949219 38.769531 323.023438 C 59.136719 298.09375 95.070312 292.648438 121.914062 310.410156 L 153.664062 278.664062 L 171.335938 296.335938 Z M 139.589844 178.085938 C 157.351562 204.929688 151.90625 240.863281 126.976562 261.230469 C 102.050781 281.597656 65.746094 279.773438 42.988281 257.011719 C 20.226562 234.253906 18.402344 197.949219 38.769531 173.023438 C 59.136719 148.09375 95.070312 142.648438 121.914062 160.410156 L 153.664062 128.664062 L 171.335938 146.335938 Z M 275 550 L 187.5 550 L 187.5 525 L 275 525 Z M 350 550 L 300 550 L 300 525 L 350 525 Z M 350 500 L 187.5 500 L 187.5 475 L 350 475 Z M 350 500 " style=" stroke:none;fill-rule:nonzero;fill-opacity:1;" />
        <path d="M 562.5 375 C 472.753906 375 400 447.753906 400 537.5 C 400 627.246094 472.753906 700 562.5 700 C 652.246094 700 725 627.246094 725 537.5 C 724.898438 447.796875 652.203125 375.101562 562.5 375 Z M 508.835938 608.835938 C 506.492188 611.179688 503.316406 612.5 500 612.5 C 499.328125 612.5 498.664062 612.445312 498 612.335938 C 494.03125 611.695312 490.617188 609.183594 488.8125 605.585938 L 463.8125 555.585938 L 486.1875 544.414062 L 503.421875 578.902344 L 641.164062 441.164062 L 658.835938 458.835938 Z M 508.835938 608.835938 " style=" stroke:none;fill-rule:nonzero;fill-opacity:1;" />
    </g>
</svg>
